<svg version="1.1" xmlns="http://www.w3.org/2000/svg" viewBox="0 0 806 352" width="806" height="352" filter="invert(93%) hue-rotate(180deg)">
  <!-- svg-source:excalidraw -->
  
  <defs>
    <style class="style-fonts">
      @font-face {
        font-family: "Virgil";
        src: url("https://excalidraw.com/Virgil.woff2");
      }
      @font-face {
        font-family: "Cascadia";
        src: url("https://excalidraw.com/Cascadia.woff2");
      }
      @font-face {
        font-family: "Assistant";
        src: url("https://excalidraw.com/Assistant-Regular.woff2");
      }
    </style>
    
  </defs>
  <g stroke-linecap="round" transform="translate(10 36.66667175292969) rotate(0 393 152.66666412353516)"><path d="M32 0 C294.29 -0.17, 555.09 0.46, 754 0 M32 0 C233.37 -1.87, 433.81 -1.64, 754 0 M754 0 C774.73 -1.25, 784.82 9.12, 786 32 M754 0 C775.61 -1.59, 785.19 9.96, 786 32 M786 32 C786.86 99.89, 787.96 168.53, 786 273.33 M786 32 C788.19 102.36, 787.69 173.62, 786 273.33 M786 273.33 C784.24 293.04, 774.21 304.1, 754 305.33 M786 273.33 C785.98 296.03, 774.16 305.42, 754 305.33 M754 305.33 C478.55 307.8, 203.17 307, 32 305.33 M754 305.33 C494.11 303.64, 233.47 303.24, 32 305.33 M32 305.33 C9.15 305.31, -0.54 293.98, 0 273.33 M32 305.33 C11.34 303.52, -0.24 294.93, 0 273.33 M0 273.33 C0.79 179.93, 1.24 84.54, 0 32 M0 273.33 C1.94 216.91, 1.73 161.27, 0 32 M0 32 C-1.27 9.89, 11.34 0.07, 32 0 M0 32 C0.6 11.43, 12.47 0.72, 32 0" stroke="#1e1e1e" stroke-width="2" fill="none"></path></g><g stroke-linecap="round" transform="translate(294.66668701171875 10) rotate(0 99.66668701171875 24.66667938232422)"><path d="M12.33 0 C50.22 2.25, 96.68 -2.59, 187 0 C195.96 -3.43, 199.18 4.14, 199.33 12.33 C199.79 22.38, 201.13 28.33, 199.33 37 C196.22 44.52, 192.51 47.24, 187 49.33 C147.84 49.63, 111.84 51.68, 12.33 49.33 C6.63 52.39, 0.59 43.29, 0 37 C-2.77 32.06, -1.79 22.13, 0 12.33 C1.78 3.69, 1.88 3.59, 12.33 0" stroke="none" stroke-width="0" fill="#ffc9c9"></path><path d="M12.33 0 C50.67 -1.89, 91.95 -0.17, 187 0 M12.33 0 C54.21 -0.54, 97.55 1.01, 187 0 M187 0 C196.42 0.94, 200.13 4.2, 199.33 12.33 M187 0 C197.02 -0.45, 198.1 3.88, 199.33 12.33 M199.33 12.33 C197.64 20.13, 197.42 28.75, 199.33 37 M199.33 12.33 C200.12 17.19, 198.36 21.59, 199.33 37 M199.33 37 C200.75 45.41, 196.18 50.22, 187 49.33 M199.33 37 C200.58 44.07, 196.02 47.97, 187 49.33 M187 49.33 C143.72 49.85, 101.4 48.92, 12.33 49.33 M187 49.33 C142.69 49.71, 98.56 48.72, 12.33 49.33 M12.33 49.33 C4.6 49.69, 1.76 46.82, 0 37 M12.33 49.33 C2.11 48.42, 0.64 45.57, 0 37 M0 37 C-1.63 30.43, 0.91 26.41, 0 12.33 M0 37 C0.06 30.75, 0.36 26.57, 0 12.33 M0 12.33 C-0.67 3.77, 4.22 -1.84, 12.33 0 M0 12.33 C-2.22 2.78, 5.99 0.5, 12.33 0" stroke="#1e1e1e" stroke-width="2" fill="none"></path></g><g transform="translate(326 12.499984741210938) rotate(0 60.9375 19.200000000000003)"><text x="60.9375" y="15.45" font-family="Cascadia, Segoe UI Emoji" font-size="16px" fill="#1e1e1e" text-anchor="middle" style="white-space: pre;" direction="ltr" dominant-baseline="alphabetic">eth0</text><text x="60.9375" y="34.65" font-family="Cascadia, Segoe UI Emoji" font-size="16px" fill="#1e1e1e" text-anchor="middle" style="white-space: pre;" direction="ltr" dominant-baseline="alphabetic">192.168.23.50</text></g><g stroke-linecap="round" transform="translate(43.3333740234375 143.3333740234375) rotate(0 54 51)"><path d="M25.5 0 C37.81 3.48, 50.81 -2.61, 82.5 0 C96.71 2.54, 104.48 8.58, 108 25.5 C108.6 41.87, 107.11 64.25, 108 76.5 C111.18 93.34, 99.86 104.23, 82.5 102 C65.33 99.53, 45.27 100.06, 25.5 102 C7.16 105.44, 2.45 91.07, 0 76.5 C1.41 61.4, -2.21 46.09, 0 25.5 C-0.16 5.19, 6.29 -1.41, 25.5 0" stroke="none" stroke-width="0" fill="#a5d8ff"></path><path d="M25.5 0 C45.52 -1.81, 66.84 0.56, 82.5 0 M25.5 0 C44.82 -0.01, 65.04 -0.64, 82.5 0 M82.5 0 C97.7 0.46, 106.28 9.56, 108 25.5 M82.5 0 C97.51 1.52, 109.75 9.98, 108 25.5 M108 25.5 C109.71 45.53, 107.96 62.01, 108 76.5 M108 25.5 C109.03 39.48, 108.6 51.2, 108 76.5 M108 76.5 C109.83 92.17, 100.17 102.86, 82.5 102 M108 76.5 C109.9 95.5, 97.76 103.16, 82.5 102 M82.5 102 C69.15 103.4, 53.78 103.8, 25.5 102 M82.5 102 C64.73 100.64, 47.13 101.24, 25.5 102 M25.5 102 C8.85 101.77, 0.52 94.95, 0 76.5 M25.5 102 C9.75 102.17, 1.08 95.14, 0 76.5 M0 76.5 C-1.01 63.57, -0.4 48.79, 0 25.5 M0 76.5 C0.16 58.6, 0.38 39.92, 0 25.5 M0 25.5 C0 7.97, 9.64 1.23, 25.5 0 M0 25.5 C2.21 8.17, 7.6 -1.72, 25.5 0" stroke="#1971c2" stroke-width="2" fill="none"></path></g><g transform="translate(83.2708740234375 184.73337402343748) rotate(0 14.0625 9.599999999999994)"><text x="14.0625" y="15.45" font-family="Cascadia, Segoe UI Emoji" font-size="16px" fill="#e03131" text-anchor="middle" style="white-space: pre;" direction="ltr" dominant-baseline="alphabetic">app</text></g><g stroke-linecap="round" transform="translate(646.3333740234375 139.66665649414062) rotate(0 54 51)"><path d="M25.5 0 C49.15 -1.47, 68.71 -0.02, 82.5 0 C99.63 -1.75, 109.75 5.33, 108 25.5 C110.56 38.41, 111.37 46.69, 108 76.5 C108.46 90.36, 96.19 103.03, 82.5 102 C66.41 104.94, 53.05 104.11, 25.5 102 C8.22 100.57, 2.13 94.89, 0 76.5 C3.28 59.1, -2.49 46.04, 0 25.5 C-3.14 10.51, 10.85 0.94, 25.5 0" stroke="none" stroke-width="0" fill="#a5d8ff"></path><path d="M25.5 0 C37.73 -2.17, 54.52 0.46, 82.5 0 M25.5 0 C42.19 -0.56, 57.51 -1.16, 82.5 0 M82.5 0 C101.17 1.96, 107.22 7.76, 108 25.5 M82.5 0 C101.53 0.45, 107.93 6.86, 108 25.5 M108 25.5 C109.2 44.71, 107.1 62.37, 108 76.5 M108 25.5 C107.57 36.38, 107.83 47.15, 108 76.5 M108 76.5 C108.57 92.77, 99.79 101.84, 82.5 102 M108 76.5 C108.37 93.11, 97.97 100.44, 82.5 102 M82.5 102 C68.01 102.34, 55.59 100.9, 25.5 102 M82.5 102 C65.19 102.27, 50.01 102.5, 25.5 102 M25.5 102 C9.46 101.24, 0.43 91.95, 0 76.5 M25.5 102 C6.87 102.73, -0.49 91.87, 0 76.5 M0 76.5 C-1.92 61.76, 0.22 48.15, 0 25.5 M0 76.5 C-1.04 61.22, 0.11 44.59, 0 25.5 M0 25.5 C-0.6 9.23, 6.82 -0.37, 25.5 0 M0 25.5 C-2.02 8.06, 6.57 -1.72, 25.5 0" stroke="#1971c2" stroke-width="2" fill="none"></path></g><g transform="translate(690.9583740234375 181.0666564941406) rotate(0 9.375 9.599999999999994)"><text x="9.375" y="15.45" font-family="Cascadia, Segoe UI Emoji" font-size="16px" fill="#e03131" text-anchor="middle" style="white-space: pre;" direction="ltr" dominant-baseline="alphabetic">db</text></g><g stroke-linecap="round" transform="translate(322 122) rotate(0 69.66665649414062 68)"><path d="M87.5 17.25 C101.74 28.53, 111.3 44.41, 121.83 51.75 C139.24 69.76, 141.81 70.49, 121.83 86.25 C110.79 92.54, 102.41 108.14, 87.5 118.75 C72.04 133.71, 68.14 137.84, 52.5 118.75 C41.21 109.82, 36.85 103.13, 17.5 86.25 C-0.77 66.52, 0.43 69.2, 17.5 51.75 C25.3 41.24, 38.4 33.64, 52.5 17.25 C68.34 0.31, 72.03 2.26, 87.5 17.25" stroke="none" stroke-width="0" fill="#b2f2bb"></path><path d="M87.5 17.25 C94.84 23.52, 103.36 34.58, 121.83 51.75 M87.5 17.25 C96.74 27.84, 108.6 38.49, 121.83 51.75 M121.83 51.75 C137.66 70.64, 138.47 70.17, 121.83 86.25 M121.83 51.75 C140.98 70.87, 138.14 68.71, 121.83 86.25 M121.83 86.25 C112.89 93.15, 106.31 101.15, 87.5 118.75 M121.83 86.25 C110.03 98.22, 97.53 108.49, 87.5 118.75 M87.5 118.75 C71.31 137.51, 70.6 137.31, 52.5 118.75 M87.5 118.75 C67.88 135.49, 70.6 137.37, 52.5 118.75 M52.5 118.75 C37.24 107.74, 26.64 93.39, 17.5 86.25 M52.5 118.75 C41 109.2, 31.11 99.1, 17.5 86.25 M17.5 86.25 C-1.52 68.14, -1.09 70.37, 17.5 51.75 M17.5 86.25 C-0.87 67.89, -0.44 70.73, 17.5 51.75 M17.5 51.75 C29.94 41.67, 39.14 31.15, 52.5 17.25 M17.5 51.75 C24.51 43.94, 31.63 37.68, 52.5 17.25 M52.5 17.25 C69.87 1.25, 70.13 -1.21, 87.5 17.25 M52.5 17.25 C71.96 0.37, 71.34 2.1, 87.5 17.25" stroke="#1971c2" stroke-width="2" fill="none"></path></g><g transform="translate(363.7083282470703 180.39999999999998) rotate(0 28.125 9.599999999999994)"><text x="28.125" y="15.45" font-family="Cascadia, Segoe UI Emoji" font-size="16px" fill="#1971c2" text-anchor="middle" style="white-space: pre;" direction="ltr" dominant-baseline="alphabetic">Bridge</text></g><g stroke-linecap="round"><g transform="translate(156.66668701171875 192) rotate(0 84.66668701171875 1)"><path d="M-0.83 0.84 C27.37 1.21, 140.19 0.98, 168.37 1.05 M0.93 0.24 C29.57 0.83, 142.3 1.76, 170.57 2.09" stroke="#2f9e44" stroke-width="2" fill="none"></path></g></g><mask></mask><g stroke-linecap="round"><g transform="translate(459.3333740234375 190.66665649414062) rotate(0 92.33334350585938 0)"><path d="M-0.68 -0.85 C30.3 -0.49, 154.66 0.9, 185.61 1.07 M1.16 1.31 C32.1 1.46, 154.61 -0.54, 185.15 -0.5" stroke="#2f9e44" stroke-width="2" fill="none"></path></g></g><mask></mask><g stroke-linecap="round"><g transform="translate(389.3333740234375 120) rotate(0 -0.333343505859375 -28.333328247070312)"><path d="M-0.15 0.17 C-0.35 -9.15, -1.39 -47.33, -1.32 -56.79 M-1.69 -0.79 C-1.48 -9.84, 0.77 -46.24, 1.05 -55.32" stroke="#2f9e44" stroke-width="2" fill="none"></path></g><g transform="translate(389.3333740234375 120) rotate(0 -0.333343505859375 -28.333328247070312)"><path d="M8.46 -31.44 C6.79 -39.4, 4.17 -43.59, 1.05 -55.32 M8.46 -31.44 C6.71 -38.57, 3.49 -45.35, 1.05 -55.32" stroke="#2f9e44" stroke-width="2" fill="none"></path></g><g transform="translate(389.3333740234375 120) rotate(0 -0.333343505859375 -28.333328247070312)"><path d="M-8.62 -32.27 C-5.39 -39.96, -3.1 -43.92, 1.05 -55.32 M-8.62 -32.27 C-5.17 -39.16, -3.19 -45.68, 1.05 -55.32" stroke="#2f9e44" stroke-width="2" fill="none"></path></g></g><mask></mask></svg>