<svg version="1.1" xmlns="http://www.w3.org/2000/svg" viewBox="0 0 577.3333129882812 352" width="577.3333129882812" height="352" filter="invert(93%) hue-rotate(180deg)">
  <!-- svg-source:excalidraw -->
  
  <defs>
    <style class="style-fonts">
      @font-face {
        font-family: "Virgil";
        src: url("https://excalidraw.com/Virgil.woff2");
      }
      @font-face {
        font-family: "Cascadia";
        src: url("https://excalidraw.com/Cascadia.woff2");
      }
      @font-face {
        font-family: "Assistant";
        src: url("https://excalidraw.com/Assistant-Regular.woff2");
      }
    </style>
    
  </defs>
  <g stroke-linecap="round" transform="translate(10 36.66667175292969) rotate(0 278.6666564941406 152.66666412353516)"><path d="M32 0 C211.37 -0.12, 389.2 0.53, 525.33 0 M32 0 C169.72 -1.27, 306.48 -1.03, 525.33 0 M525.33 0 C546.06 -1.25, 556.16 9.12, 557.33 32 M525.33 0 C546.94 -1.59, 556.53 9.96, 557.33 32 M557.33 32 C558.19 99.89, 559.29 168.53, 557.33 273.33 M557.33 32 C559.52 102.36, 559.02 173.62, 557.33 273.33 M557.33 273.33 C555.58 293.04, 545.54 304.1, 525.33 305.33 M557.33 273.33 C557.32 296.03, 545.49 305.42, 525.33 305.33 M525.33 305.33 C337.16 307.18, 149.05 306.37, 32 305.33 M525.33 305.33 C347.86 304.21, 169.61 303.8, 32 305.33 M32 305.33 C9.15 305.31, -0.54 293.98, 0 273.33 M32 305.33 C11.34 303.52, -0.24 294.93, 0 273.33 M0 273.33 C0.79 179.93, 1.24 84.54, 0 32 M0 273.33 C1.94 216.91, 1.73 161.27, 0 32 M0 32 C-1.27 9.89, 11.34 0.07, 32 0 M0 32 C0.6 11.43, 12.47 0.72, 32 0" stroke="#1e1e1e" stroke-width="2" fill="none"></path></g><g stroke-linecap="round" transform="translate(190.66668701171875 10) rotate(0 99.66668701171875 24.66667938232422)"><path d="M12.33 0 C50.22 2.25, 96.68 -2.59, 187 0 C195.96 -3.43, 199.18 4.14, 199.33 12.33 C199.79 22.38, 201.13 28.33, 199.33 37 C196.22 44.52, 192.51 47.24, 187 49.33 C147.84 49.63, 111.84 51.68, 12.33 49.33 C6.63 52.39, 0.59 43.29, 0 37 C-2.77 32.06, -1.79 22.13, 0 12.33 C1.78 3.69, 1.88 3.59, 12.33 0" stroke="none" stroke-width="0" fill="#ffc9c9"></path><path d="M12.33 0 C50.67 -1.89, 91.95 -0.17, 187 0 M12.33 0 C54.21 -0.54, 97.55 1.01, 187 0 M187 0 C196.42 0.94, 200.13 4.2, 199.33 12.33 M187 0 C197.02 -0.45, 198.1 3.88, 199.33 12.33 M199.33 12.33 C197.64 20.13, 197.42 28.75, 199.33 37 M199.33 12.33 C200.12 17.19, 198.36 21.59, 199.33 37 M199.33 37 C200.75 45.41, 196.18 50.22, 187 49.33 M199.33 37 C200.58 44.07, 196.02 47.97, 187 49.33 M187 49.33 C143.72 49.85, 101.4 48.92, 12.33 49.33 M187 49.33 C142.69 49.71, 98.56 48.72, 12.33 49.33 M12.33 49.33 C4.6 49.69, 1.76 46.82, 0 37 M12.33 49.33 C2.11 48.42, 0.64 45.57, 0 37 M0 37 C-1.63 30.43, 0.91 26.41, 0 12.33 M0 37 C0.06 30.75, 0.36 26.57, 0 12.33 M0 12.33 C-0.67 3.77, 4.22 -1.84, 12.33 0 M0 12.33 C-2.22 2.78, 5.99 0.5, 12.33 0" stroke="#1e1e1e" stroke-width="2" fill="none"></path></g><g transform="translate(222 12.499984741210938) rotate(0 60.9375 19.200000000000003)"><text x="60.9375" y="15.45" font-family="Cascadia, Segoe UI Emoji" font-size="16px" fill="#1e1e1e" text-anchor="middle" style="white-space: pre;" direction="ltr" dominant-baseline="alphabetic">eth0</text><text x="60.9375" y="34.65" font-family="Cascadia, Segoe UI Emoji" font-size="16px" fill="#1e1e1e" text-anchor="middle" style="white-space: pre;" direction="ltr" dominant-baseline="alphabetic">192.168.23.50</text></g><g stroke-linecap="round" transform="translate(54.66668701171875 172.66671752929688) rotate(0 27.666671752929688 27.333343505859375)"><path d="M13.67 0 C18.69 3.44, 24.39 -2.65, 41.67 0 C47.99 2.54, 51.81 4.63, 55.33 13.67 C56.18 21.16, 54.69 34.65, 55.33 41 C58.52 49.95, 51.13 56.89, 41.67 54.67 C33.68 52.11, 22.82 52.64, 13.67 54.67 C3.22 58.11, 2.45 47.69, 0 41 C1.7 32.89, -1.92 24.56, 0 13.67 C-0.16 1.25, 2.34 -1.41, 13.67 0" stroke="none" stroke-width="0" fill="#a5d8ff"></path><path d="M13.67 0 C23.46 -1.67, 34.55 0.7, 41.67 0 M13.67 0 C23.08 -0.17, 33.4 -0.8, 41.67 0 M41.67 0 C48.98 0.46, 53.61 5.61, 55.33 13.67 M41.67 0 C48.79 1.52, 57.08 6.03, 55.33 13.67 M55.33 13.67 C56.9 25.17, 55.15 33.12, 55.33 41 M55.33 13.67 C56.17 21.52, 55.75 27.12, 55.33 41 M55.33 41 C57.17 48.78, 51.45 55.52, 41.67 54.67 M55.33 41 C57.24 52.11, 49.04 55.82, 41.67 54.67 M41.67 54.67 C35.77 55.9, 27.85 56.3, 13.67 54.67 M41.67 54.67 C32.79 53.5, 24.07 54.1, 13.67 54.67 M13.67 54.67 C4.91 54.43, 0.52 51.56, 0 41 M13.67 54.67 C5.8 54.84, 1.08 51.75, 0 41 M0 41 C-1.22 34.78, -0.61 26.7, 0 13.67 M0 41 C0.33 31.71, 0.54 21.65, 0 13.67 M0 13.67 C0 4.03, 5.69 1.23, 13.67 0 M0 13.67 C2.21 4.22, 3.65 -1.72, 13.67 0" stroke="#1971c2" stroke-width="2" fill="none"></path></g><g transform="translate(68.27085876464844 190.40006103515623) rotate(0 14.0625 9.599999999999994)"><text x="14.0625" y="15.45" font-family="Cascadia, Segoe UI Emoji" font-size="16px" fill="#e03131" text-anchor="middle" style="white-space: pre;" direction="ltr" dominant-baseline="alphabetic">app</text></g><g stroke-linecap="round" transform="translate(461.00006103515625 170.99996948242188) rotate(0 29.666656494140625 30)"><path d="M14.83 0 C27.75 -1.57, 36.57 -0.12, 44.5 0 C54.52 -1.75, 61.09 1.77, 59.33 14.83 C61.67 22.95, 62.47 26.43, 59.33 45.17 C59.8 51.92, 51.08 61.03, 44.5 60 C34.97 62.55, 28.16 61.72, 14.83 60 C4.67 58.57, 2.13 56.45, 0 45.17 C2.91 34.24, -2.86 27.66, 0 14.83 C-3.14 6.96, 7.29 0.94, 14.83 0" stroke="none" stroke-width="0" fill="#a5d8ff"></path><path d="M14.83 0 C20.27 -2.09, 30.27 0.55, 44.5 0 M14.83 0 C23.85 -0.29, 31.5 -0.89, 44.5 0 M44.5 0 C56.06 1.96, 58.56 4.21, 59.33 14.83 M44.5 0 C56.42 0.45, 59.27 3.31, 59.33 14.83 M59.33 14.83 C60.5 26.61, 58.39 36.83, 59.33 45.17 M59.33 14.83 C58.8 21.14, 59.06 27.34, 59.33 45.17 M59.33 45.17 C59.91 54.32, 54.68 59.84, 44.5 60 M59.33 45.17 C59.71 54.66, 52.86 58.44, 44.5 60 M44.5 60 C36.27 60.35, 30.1 58.92, 14.83 60 M44.5 60 C35.03 60.25, 27.69 60.48, 14.83 60 M14.83 60 C5.9 59.24, 0.43 53.5, 0 45.17 M14.83 60 C3.31 60.73, -0.49 53.43, 0 45.17 M0 45.17 C-1.77 35.87, 0.36 27.71, 0 14.83 M0 45.17 C-0.85 36.39, 0.31 26.26, 0 14.83 M0 14.83 C-0.6 5.68, 3.26 -0.37, 14.83 0 M0 14.83 C-2.02 4.5, 3.02 -1.72, 14.83 0" stroke="#1971c2" stroke-width="2" fill="none"></path></g><g transform="translate(481.2917175292969 191.39996948242185) rotate(0 9.375 9.599999999999994)"><text x="9.375" y="15.45" font-family="Cascadia, Segoe UI Emoji" font-size="16px" fill="#e03131" text-anchor="middle" style="white-space: pre;" direction="ltr" dominant-baseline="alphabetic">db</text></g><g stroke-linecap="round"><g transform="translate(281.3333740234375 64.66665649414062) rotate(0 86.66668701171875 67)"><path d="M-0.52 -0.83 C1.52 19.52, -16.54 98.65, 12.54 121.13 C41.62 143.61, 147.23 132.08, 173.98 134.04 M1.41 1.34 C3.31 21.97, -16.82 100.23, 11.87 122.56 C40.56 144.9, 146.67 133.57, 173.55 135.38" stroke="#2f9e44" stroke-width="2" fill="none"></path></g><g transform="translate(281.3333740234375 64.66665649414062) rotate(0 86.66668701171875 67)"><path d="M150.2 144.3 C156.53 142.38, 165.22 139.64, 173.55 135.38 M150.2 144.3 C156.47 142.57, 165.17 138.13, 173.55 135.38" stroke="#2f9e44" stroke-width="2" fill="none"></path></g><g transform="translate(281.3333740234375 64.66665649414062) rotate(0 86.66668701171875 67)"><path d="M149.93 127.2 C156.2 130.87, 164.99 133.73, 173.55 135.38 M149.93 127.2 C156.24 130.66, 165.02 131.41, 173.55 135.38" stroke="#2f9e44" stroke-width="2" fill="none"></path></g></g><mask></mask><g stroke-linecap="round"><g transform="translate(280.00006103515625 64) rotate(0 -79.3333740234375 68.66665649414062)"><path d="M0.32 -0.46 C-2.13 20.09, 11.23 101.29, -15.09 124.41 C-41.41 147.53, -133.51 136.21, -157.59 138.25 M-0.96 -1.75 C-3.53 19.01, 10.22 99.83, -15.91 122.86 C-42.05 145.88, -133.82 133.97, -157.79 136.39" stroke="#2f9e44" stroke-width="2" fill="none"></path></g><g transform="translate(280.00006103515625 64) rotate(0 -79.3333740234375 68.66665649414062)"><path d="M-134.21 128.08 C-141.27 130.79, -145.08 134.44, -157.79 136.39 M-134.21 128.08 C-143.54 132.01, -151.7 134.07, -157.79 136.39" stroke="#2f9e44" stroke-width="2" fill="none"></path></g><g transform="translate(280.00006103515625 64) rotate(0 -79.3333740234375 68.66665649414062)"><path d="M-134.38 145.18 C-141.55 143.27, -145.31 142.29, -157.79 136.39 M-134.38 145.18 C-143.52 142.67, -151.62 138.29, -157.79 136.39" stroke="#2f9e44" stroke-width="2" fill="none"></path></g></g><mask></mask><g transform="translate(375.5400299452299 246.6801068506653) rotate(0 84.375 9.599999999999994)"><text x="84.375" y="15.45" font-family="Cascadia, Segoe UI Emoji" font-size="16px" fill="#343a40" text-anchor="middle" style="white-space: pre;" direction="ltr" dominant-baseline="alphabetic">192.168.23.50:5432</text></g><g transform="translate(28.829098219875732 247.53645912644134) rotate(0 84.375 9.599999999999994)"><text x="84.375" y="15.45" font-family="Cascadia, Segoe UI Emoji" font-size="16px" fill="#343a40" text-anchor="middle" style="white-space: pre;" direction="ltr" dominant-baseline="alphabetic">192.168.23.50:8080</text></g></svg>