<svg version="1.1" xmlns="http://www.w3.org/2000/svg" viewBox="0 0 728.1250699825821 374.0133824935437" width="728.1250699825821" height="374.0133824935437" filter="invert(93%) hue-rotate(180deg)">
  <!-- svg-source:excalidraw -->
  
  <defs>
    <style class="style-fonts">
      @font-face {
        font-family: "Virgil";
        src: url("https://excalidraw.com/Virgil.woff2");
      }
      @font-face {
        font-family: "Cascadia";
        src: url("https://excalidraw.com/Cascadia.woff2");
      }
      @font-face {
        font-family: "Assistant";
        src: url("https://excalidraw.com/Assistant-Regular.woff2");
      }
    </style>
    
  </defs>
  <g stroke-linecap="round" transform="translate(10 58.68005424647339) rotate(0 354.06253499129105 152.66666412353516)"><path d="M32 0 C266.05 -0.15, 498.6 0.48, 676.13 0 M32 0 C211.69 -1.65, 390.45 -1.42, 676.13 0 M676.13 0 C696.85 -1.25, 706.95 9.12, 708.13 32 M676.13 0 C697.73 -1.59, 707.32 9.96, 708.13 32 M708.13 32 C708.98 99.89, 710.08 168.53, 708.13 273.33 M708.13 32 C710.31 102.36, 709.81 173.62, 708.13 273.33 M708.13 273.33 C706.37 293.04, 696.33 304.1, 676.13 305.33 M708.13 273.33 C708.11 296.03, 696.28 305.42, 676.13 305.33 M676.13 305.33 C430.4 307.57, 184.73 306.78, 32 305.33 M676.13 305.33 C444.3 303.84, 211.72 303.44, 32 305.33 M32 305.33 C9.15 305.31, -0.54 293.98, 0 273.33 M32 305.33 C11.34 303.52, -0.24 294.93, 0 273.33 M0 273.33 C0.79 179.93, 1.24 84.54, 0 32 M0 273.33 C1.94 216.91, 1.73 161.27, 0 32 M0 32 C-1.27 9.89, 11.34 0.07, 32 0 M0 32 C0.6 11.43, 12.47 0.72, 32 0" stroke="#1e1e1e" stroke-width="2" fill="none"></path></g><g stroke-linecap="round" transform="translate(247.901499129561 10) rotate(0 99.66668701171875 35.08721498930353)"><path d="M17.54 0 C53.02 2.25, 97.07 -2.59, 181.79 0 C194.23 -3.43, 199.18 5.87, 199.33 17.54 C199.78 31.23, 201.11 40.83, 199.33 52.63 C196.22 63.62, 190.78 68.08, 181.79 70.17 C144.78 70.36, 110.92 72.41, 17.54 70.17 C8.37 73.24, 0.59 62.39, 0 52.63 C-2.91 45.3, -1.93 32.98, 0 17.54 C1.78 5.43, 3.61 3.59, 17.54 0" stroke="none" stroke-width="0" fill="#ffc9c9"></path><path d="M17.54 0 C53.5 -1.82, 92.4 -0.1, 181.79 0 M17.54 0 C56.87 -0.57, 97.65 0.99, 181.79 0 M181.79 0 C194.69 0.94, 200.13 5.94, 199.33 17.54 M181.79 0 C195.28 -0.45, 198.1 5.61, 199.33 17.54 M199.33 17.54 C197.62 28.47, 197.4 40.22, 199.33 52.63 M199.33 17.54 C200.1 24.52, 198.34 31.04, 199.33 52.63 M199.33 52.63 C200.75 64.52, 194.45 71.06, 181.79 70.17 M199.33 52.63 C200.58 63.17, 194.28 68.81, 181.79 70.17 M181.79 70.17 C141.09 70.75, 101.34 69.81, 17.54 70.17 M181.79 70.17 C140.1 70.54, 98.6 69.55, 17.54 70.17 M17.54 70.17 C6.33 70.53, 1.76 65.92, 0 52.63 M17.54 70.17 C3.85 69.26, 0.64 64.67, 0 52.63 M0 52.63 C-1.71 43.95, 0.83 37.82, 0 17.54 M0 52.63 C0 44.03, 0.3 37.51, 0 17.54 M0 17.54 C-0.67 5.5, 5.95 -1.84, 17.54 0 M0 17.54 C-2.22 4.52, 7.73 0.5, 17.54 0" stroke="#1e1e1e" stroke-width="2" fill="none"></path></g><g transform="translate(269.8405368362801 15.251654403863085) rotate(0 79.6875 28.799999999999997)"><text x="79.6875" y="15.45" font-family="Cascadia, Segoe UI Emoji" font-size="16px" fill="#1e1e1e" text-anchor="middle" style="white-space: pre;" direction="ltr" dominant-baseline="alphabetic">eth0</text><text x="79.6875" y="34.65" font-family="Cascadia, Segoe UI Emoji" font-size="16px" fill="#1e1e1e" text-anchor="middle" style="white-space: pre;" direction="ltr" dominant-baseline="alphabetic">192.168.23.50</text><text x="79.6875" y="53.849999999999994" font-family="Cascadia, Segoe UI Emoji" font-size="16px" fill="#1e1e1e" text-anchor="middle" style="white-space: pre;" direction="ltr" dominant-baseline="alphabetic">8b:8a:6a:c7:a3:ca</text></g><g stroke-linecap="round" transform="translate(36.50562693049221 254.66658180333485) rotate(0 27.666671752929688 27.333343505859375)"><path d="M13.67 0 C18.69 3.44, 24.39 -2.65, 41.67 0 C47.99 2.54, 51.81 4.63, 55.33 13.67 C56.18 21.16, 54.69 34.65, 55.33 41 C58.52 49.95, 51.13 56.89, 41.67 54.67 C33.68 52.11, 22.82 52.64, 13.67 54.67 C3.22 58.11, 2.45 47.69, 0 41 C1.7 32.89, -1.92 24.56, 0 13.67 C-0.16 1.25, 2.34 -1.41, 13.67 0" stroke="none" stroke-width="0" fill="#a5d8ff"></path><path d="M13.67 0 C23.46 -1.67, 34.55 0.7, 41.67 0 M13.67 0 C23.08 -0.17, 33.4 -0.8, 41.67 0 M41.67 0 C48.98 0.46, 53.61 5.61, 55.33 13.67 M41.67 0 C48.79 1.52, 57.08 6.03, 55.33 13.67 M55.33 13.67 C56.9 25.17, 55.15 33.12, 55.33 41 M55.33 13.67 C56.17 21.52, 55.75 27.12, 55.33 41 M55.33 41 C57.17 48.78, 51.45 55.52, 41.67 54.67 M55.33 41 C57.24 52.11, 49.04 55.82, 41.67 54.67 M41.67 54.67 C35.77 55.9, 27.85 56.3, 13.67 54.67 M41.67 54.67 C32.79 53.5, 24.07 54.1, 13.67 54.67 M13.67 54.67 C4.91 54.43, 0.52 51.56, 0 41 M13.67 54.67 C5.8 54.84, 1.08 51.75, 0 41 M0 41 C-1.22 34.78, -0.61 26.7, 0 13.67 M0 41 C0.33 31.71, 0.54 21.65, 0 13.67 M0 13.67 C0 4.03, 5.69 1.23, 13.67 0 M0 13.67 C2.21 4.22, 3.65 -1.72, 13.67 0" stroke="#1971c2" stroke-width="2" fill="none"></path></g><g transform="translate(50.1097986834219 272.3999253091942) rotate(0 14.0625 9.599999999999994)"><text x="14.0625" y="15.45" font-family="Cascadia, Segoe UI Emoji" font-size="16px" fill="#e03131" text-anchor="middle" style="white-space: pre;" direction="ltr" dominant-baseline="alphabetic">app</text></g><g stroke-linecap="round" transform="translate(628.8521623802026 254.6508632656105) rotate(0 29.666656494140625 30)"><path d="M14.83 0 C27.75 -1.57, 36.57 -0.12, 44.5 0 C54.52 -1.75, 61.09 1.77, 59.33 14.83 C61.67 22.95, 62.47 26.43, 59.33 45.17 C59.8 51.92, 51.08 61.03, 44.5 60 C34.97 62.55, 28.16 61.72, 14.83 60 C4.67 58.57, 2.13 56.45, 0 45.17 C2.91 34.24, -2.86 27.66, 0 14.83 C-3.14 6.96, 7.29 0.94, 14.83 0" stroke="none" stroke-width="0" fill="#a5d8ff"></path><path d="M14.83 0 C20.27 -2.09, 30.27 0.55, 44.5 0 M14.83 0 C23.85 -0.29, 31.5 -0.89, 44.5 0 M44.5 0 C56.06 1.96, 58.56 4.21, 59.33 14.83 M44.5 0 C56.42 0.45, 59.27 3.31, 59.33 14.83 M59.33 14.83 C60.5 26.61, 58.39 36.83, 59.33 45.17 M59.33 14.83 C58.8 21.14, 59.06 27.34, 59.33 45.17 M59.33 45.17 C59.91 54.32, 54.68 59.84, 44.5 60 M59.33 45.17 C59.71 54.66, 52.86 58.44, 44.5 60 M44.5 60 C36.27 60.35, 30.1 58.92, 14.83 60 M44.5 60 C35.03 60.25, 27.69 60.48, 14.83 60 M14.83 60 C5.9 59.24, 0.43 53.5, 0 45.17 M14.83 60 C3.31 60.73, -0.49 53.43, 0 45.17 M0 45.17 C-1.77 35.87, 0.36 27.71, 0 14.83 M0 45.17 C-0.85 36.39, 0.31 26.26, 0 14.83 M0 14.83 C-0.6 5.68, 3.26 -0.37, 14.83 0 M0 14.83 C-2.02 4.5, 3.02 -1.72, 14.83 0" stroke="#1971c2" stroke-width="2" fill="none"></path></g><g transform="translate(649.1438188743432 275.0508632656105) rotate(0 9.375 9.599999999999994)"><text x="9.375" y="15.45" font-family="Cascadia, Segoe UI Emoji" font-size="16px" fill="#e03131" text-anchor="middle" style="white-space: pre;" direction="ltr" dominant-baseline="alphabetic">db</text></g><g stroke-linecap="round" transform="translate(279.9555720075838 134.41181330663738) rotate(0 75.39587219906878 14.30869988041971)"><path d="M1.9 1.66 C1.9 1.66, 1.9 1.66, 1.9 1.66 M1.9 1.66 C1.9 1.66, 1.9 1.66, 1.9 1.66 M0.73 15.21 C5.64 9.28, 10.05 3.52, 13.85 0.11 M0.73 15.21 C3.73 12.25, 6.56 8.39, 13.85 0.11 M2.17 25.74 C9.76 18.26, 18.24 6.22, 24.48 0.08 M2.17 25.74 C8.93 15.97, 17.24 7.39, 24.48 0.08 M10.83 27.97 C15.32 22.34, 19.55 16.88, 35.11 0.04 M10.83 27.97 C15.88 21.16, 22.21 16.03, 35.11 0.04 M21.46 27.93 C25.31 20.21, 30.74 17.54, 45.74 0.01 M21.46 27.93 C27.25 20.06, 33.54 13.76, 45.74 0.01 M32.09 27.9 C38.35 19.12, 46.97 12.42, 56.37 -0.03 M32.09 27.9 C39.77 20.15, 45.91 11.33, 56.37 -0.03 M42.07 28.62 C48.04 22, 54.12 12.9, 67 -0.06 M42.07 28.62 C49.22 21.05, 55.46 13.03, 67 -0.06 M52.7 28.58 C62.05 17.84, 70.46 8.16, 76.97 0.66 M52.7 28.58 C60.39 18.96, 69.86 9.4, 76.97 0.66 M63.33 28.55 C71.74 19.27, 77.97 7.42, 87.6 0.62 M63.33 28.55 C71.42 18.31, 79.51 9.27, 87.6 0.62 M73.96 28.51 C80.18 22.33, 85.15 14.46, 98.23 0.59 M73.96 28.51 C78.56 22.44, 85.44 15.8, 98.23 0.59 M84.59 28.48 C91.7 21.46, 95.93 11.58, 108.86 0.56 M84.59 28.48 C90.06 22.32, 94.84 17.45, 108.86 0.56 M95.22 28.45 C99.65 23.6, 107.76 13.8, 119.49 0.52 M95.22 28.45 C104.1 18.86, 112.33 10.07, 119.49 0.52 M105.85 28.41 C111.97 21.02, 120.06 11.63, 130.12 0.49 M105.85 28.41 C114.28 18.85, 121.3 9.77, 130.12 0.49 M116.48 28.38 C122.96 21.84, 127.48 15.12, 140.75 0.45 M116.48 28.38 C123.03 21.15, 127.2 14.78, 140.75 0.45 M127.11 28.34 C133.37 18.84, 139.25 11.74, 149.41 2.68 M127.11 28.34 C131.85 21.31, 139.1 15.48, 149.41 2.68 M137.74 28.31 C140.81 23.96, 145.16 17.85, 150.86 13.21 M137.74 28.31 C140.27 25.08, 143.3 21.17, 150.86 13.21" stroke="#b2f2bb" stroke-width="1" fill="none"></path><path d="M7.15 0 C52.77 -0.21, 101.96 2.1, 143.64 0 M7.15 0 C49.42 0.49, 90.32 0.53, 143.64 0 M143.64 0 C148.58 0.09, 151.04 1.49, 150.79 7.15 M143.64 0 C148.53 -1.53, 149.17 0.21, 150.79 7.15 M150.79 7.15 C150.84 13.05, 151.85 17.14, 150.79 21.46 M150.79 7.15 C150.41 12.62, 151.31 16.97, 150.79 21.46 M150.79 21.46 C151.48 25.12, 149.23 26.8, 143.64 28.62 M150.79 21.46 C149.4 27.66, 148.75 26.33, 143.64 28.62 M143.64 28.62 C91.7 27.93, 43.2 27.71, 7.15 28.62 M143.64 28.62 C115.62 29.12, 86.88 28.14, 7.15 28.62 M7.15 28.62 C2 29.69, 0.32 26.09, 0 21.46 M7.15 28.62 C3.83 29.12, -0.92 24.1, 0 21.46 M0 21.46 C-0.84 17.94, -0.54 12.15, 0 7.15 M0 21.46 C-0.6 17.61, 0.22 13.09, 0 7.15 M0 7.15 C1.63 1.81, 2.13 0.29, 7.15 0 M0 7.15 C1.1 3.14, 1.52 -2.14, 7.15 0" stroke="#2f9e44" stroke-width="2" fill="none"></path></g><g transform="translate(285.038919014326 137.71379674795872) rotate(0 70.3125 9.599999999999994)"><text x="70.3125" y="15.45" font-family="Cascadia, Segoe UI Emoji" font-size="16px" fill="#2f9e44" text-anchor="middle" style="white-space: pre;" direction="ltr" dominant-baseline="alphabetic">Network Gateway</text></g><g stroke-linecap="round"><g transform="translate(350.3520763932801 83.16896665420373) rotate(0 -3.214890803233118 25.346260138800616)"><path d="M-0.06 0.09 C-1.29 8.43, -6.4 41.51, -7.59 49.77 M-1.54 -0.92 C-2.41 7.58, -4.97 42.28, -5.48 50.83" stroke="#2f9e44" stroke-width="2" fill="none"></path></g><g transform="translate(350.3520763932801 83.16896665420373) rotate(0 -3.214890803233118 25.346260138800616)"><path d="M-12.41 26.81 C-10.36 31.69, -10.07 39.23, -5.48 50.83 M-12.41 26.81 C-11.44 31.4, -9.18 37.17, -5.48 50.83" stroke="#2f9e44" stroke-width="2" fill="none"></path></g><g transform="translate(350.3520763932801 83.16896665420373) rotate(0 -3.214890803233118 25.346260138800616)"><path d="M4.65 27.98 C1.87 32.52, -2.67 39.72, -5.48 50.83 M4.65 27.98 C2 32.32, 0.64 37.85, -5.48 50.83" stroke="#2f9e44" stroke-width="2" fill="none"></path></g></g><mask></mask><g stroke-linecap="round"><g transform="translate(95.04308852330246 290.1565454629203) rotate(0 264.71101706666286 -1.3758285332444018)"><path d="M0.7 -0.44 C89.05 -0.86, 440.87 -3.35, 528.93 -3.69 M-0.39 -1.72 C87.86 -1.91, 439.64 -2.76, 527.72 -2.65" stroke="#2f9e44" stroke-width="2" fill="none"></path></g></g><mask></mask><g stroke-linecap="round"><g transform="translate(350.9487576310132 161.92856031781196) rotate(0 -1.6510043168240145 64.11401776488077)"><path d="M0.2 0.82 C-0.6 22.47, -3.79 108.15, -4.44 129.32 M-1.16 0.2 C-1.63 21.59, -1.73 106.31, -2.33 127.77" stroke="#2f9e44" stroke-width="2" fill="none"></path></g></g><mask></mask><g transform="translate(367.89329913842573 174.58626847757102) rotate(0 56.25 9.599999999999994)"><text x="56.25" y="15.45" font-family="Cascadia, Segoe UI Emoji" font-size="16px" fill="#fd7e14" text-anchor="middle" style="white-space: pre;" direction="ltr" dominant-baseline="alphabetic">192.168.23.1</text></g><g transform="translate(455.8985401393885 244.2344253004669) rotate(0 79.6875 19.19999999999999)"><text x="79.6875" y="15.45" font-family="Cascadia, Segoe UI Emoji" font-size="16px" fill="#fd7e14" text-anchor="middle" style="white-space: pre;" direction="ltr" dominant-baseline="alphabetic">192.168.23.2</text><text x="79.6875" y="34.65" font-family="Cascadia, Segoe UI Emoji" font-size="16px" fill="#fd7e14" text-anchor="middle" style="white-space: pre;" direction="ltr" dominant-baseline="alphabetic">27:f1:7c:ad:71:7f</text></g><g transform="translate(108.36218183260212 244.78477686762596) rotate(0 79.6875 19.19999999999999)"><text x="79.6875" y="15.45" font-family="Cascadia, Segoe UI Emoji" font-size="16px" fill="#fd7e14" text-anchor="middle" style="white-space: pre;" direction="ltr" dominant-baseline="alphabetic">192.168.23.3</text><text x="79.6875" y="34.65" font-family="Cascadia, Segoe UI Emoji" font-size="16px" fill="#fd7e14" text-anchor="middle" style="white-space: pre;" direction="ltr" dominant-baseline="alphabetic">94:3b:1e:e4:d2:72</text></g></svg>