<svg version="1.1" xmlns="http://www.w3.org/2000/svg" viewBox="0 0 577.3333129882812 352" width="577.3333129882812" height="352" filter="invert(93%) hue-rotate(180deg)">
  <!-- svg-source:excalidraw -->
  
  <defs>
    <style class="style-fonts">
      @font-face {
        font-family: "Virgil";
        src: url("https://excalidraw.com/Virgil.woff2");
      }
      @font-face {
        font-family: "Cascadia";
        src: url("https://excalidraw.com/Cascadia.woff2");
      }
      @font-face {
        font-family: "Assistant";
        src: url("https://excalidraw.com/Assistant-Regular.woff2");
      }
    </style>
    
  </defs>
  <g stroke-linecap="round" transform="translate(10 36.66667175292969) rotate(0 278.6666564941406 152.66666412353516)"><path d="M32 0 C211.37 -0.12, 389.2 0.53, 525.33 0 M32 0 C169.72 -1.27, 306.48 -1.03, 525.33 0 M525.33 0 C546.06 -1.25, 556.16 9.12, 557.33 32 M525.33 0 C546.94 -1.59, 556.53 9.96, 557.33 32 M557.33 32 C558.19 99.89, 559.29 168.53, 557.33 273.33 M557.33 32 C559.52 102.36, 559.02 173.62, 557.33 273.33 M557.33 273.33 C555.58 293.04, 545.54 304.1, 525.33 305.33 M557.33 273.33 C557.32 296.03, 545.49 305.42, 525.33 305.33 M525.33 305.33 C337.16 307.18, 149.05 306.37, 32 305.33 M525.33 305.33 C347.86 304.21, 169.61 303.8, 32 305.33 M32 305.33 C9.15 305.31, -0.54 293.98, 0 273.33 M32 305.33 C11.34 303.52, -0.24 294.93, 0 273.33 M0 273.33 C0.79 179.93, 1.24 84.54, 0 32 M0 273.33 C1.94 216.91, 1.73 161.27, 0 32 M0 32 C-1.27 9.89, 11.34 0.07, 32 0 M0 32 C0.6 11.43, 12.47 0.72, 32 0" stroke="#1e1e1e" stroke-width="2" fill="none"></path></g><g stroke-linecap="round" transform="translate(190.66668701171875 10) rotate(0 99.66668701171875 24.66667938232422)"><path d="M12.33 0 C50.22 2.25, 96.68 -2.59, 187 0 C195.96 -3.43, 199.18 4.14, 199.33 12.33 C199.79 22.38, 201.13 28.33, 199.33 37 C196.22 44.52, 192.51 47.24, 187 49.33 C147.84 49.63, 111.84 51.68, 12.33 49.33 C6.63 52.39, 0.59 43.29, 0 37 C-2.77 32.06, -1.79 22.13, 0 12.33 C1.78 3.69, 1.88 3.59, 12.33 0" stroke="none" stroke-width="0" fill="#ffc9c9"></path><path d="M12.33 0 C50.67 -1.89, 91.95 -0.17, 187 0 M12.33 0 C54.21 -0.54, 97.55 1.01, 187 0 M187 0 C196.42 0.94, 200.13 4.2, 199.33 12.33 M187 0 C197.02 -0.45, 198.1 3.88, 199.33 12.33 M199.33 12.33 C197.64 20.13, 197.42 28.75, 199.33 37 M199.33 12.33 C200.12 17.19, 198.36 21.59, 199.33 37 M199.33 37 C200.75 45.41, 196.18 50.22, 187 49.33 M199.33 37 C200.58 44.07, 196.02 47.97, 187 49.33 M187 49.33 C143.72 49.85, 101.4 48.92, 12.33 49.33 M187 49.33 C142.69 49.71, 98.56 48.72, 12.33 49.33 M12.33 49.33 C4.6 49.69, 1.76 46.82, 0 37 M12.33 49.33 C2.11 48.42, 0.64 45.57, 0 37 M0 37 C-1.63 30.43, 0.91 26.41, 0 12.33 M0 37 C0.06 30.75, 0.36 26.57, 0 12.33 M0 12.33 C-0.67 3.77, 4.22 -1.84, 12.33 0 M0 12.33 C-2.22 2.78, 5.99 0.5, 12.33 0" stroke="#1e1e1e" stroke-width="2" fill="none"></path></g><g transform="translate(222 12.499984741210938) rotate(0 60.9375 19.200000000000003)"><text x="60.9375" y="15.45" font-family="Cascadia, Segoe UI Emoji" font-size="16px" fill="#1e1e1e" text-anchor="middle" style="white-space: pre;" direction="ltr" dominant-baseline="alphabetic">eth0</text><text x="60.9375" y="34.65" font-family="Cascadia, Segoe UI Emoji" font-size="16px" fill="#1e1e1e" text-anchor="middle" style="white-space: pre;" direction="ltr" dominant-baseline="alphabetic">192.168.23.50</text></g><g stroke-linecap="round" transform="translate(54.66668701171875 172.66671752929688) rotate(0 27.666671752929688 27.333343505859375)"><path d="M13.67 0 C18.69 3.44, 24.39 -2.65, 41.67 0 C47.99 2.54, 51.81 4.63, 55.33 13.67 C56.18 21.16, 54.69 34.65, 55.33 41 C58.52 49.95, 51.13 56.89, 41.67 54.67 C33.68 52.11, 22.82 52.64, 13.67 54.67 C3.22 58.11, 2.45 47.69, 0 41 C1.7 32.89, -1.92 24.56, 0 13.67 C-0.16 1.25, 2.34 -1.41, 13.67 0" stroke="none" stroke-width="0" fill="#a5d8ff"></path><path d="M13.67 0 C23.46 -1.67, 34.55 0.7, 41.67 0 M13.67 0 C23.08 -0.17, 33.4 -0.8, 41.67 0 M41.67 0 C48.98 0.46, 53.61 5.61, 55.33 13.67 M41.67 0 C48.79 1.52, 57.08 6.03, 55.33 13.67 M55.33 13.67 C56.9 25.17, 55.15 33.12, 55.33 41 M55.33 13.67 C56.17 21.52, 55.75 27.12, 55.33 41 M55.33 41 C57.17 48.78, 51.45 55.52, 41.67 54.67 M55.33 41 C57.24 52.11, 49.04 55.82, 41.67 54.67 M41.67 54.67 C35.77 55.9, 27.85 56.3, 13.67 54.67 M41.67 54.67 C32.79 53.5, 24.07 54.1, 13.67 54.67 M13.67 54.67 C4.91 54.43, 0.52 51.56, 0 41 M13.67 54.67 C5.8 54.84, 1.08 51.75, 0 41 M0 41 C-1.22 34.78, -0.61 26.7, 0 13.67 M0 41 C0.33 31.71, 0.54 21.65, 0 13.67 M0 13.67 C0 4.03, 5.69 1.23, 13.67 0 M0 13.67 C2.21 4.22, 3.65 -1.72, 13.67 0" stroke="#1971c2" stroke-width="2" fill="none"></path></g><g transform="translate(68.27085876464844 190.40006103515623) rotate(0 14.0625 9.599999999999994)"><text x="14.0625" y="15.45" font-family="Cascadia, Segoe UI Emoji" font-size="16px" fill="#e03131" text-anchor="middle" style="white-space: pre;" direction="ltr" dominant-baseline="alphabetic">app</text></g><g stroke-linecap="round" transform="translate(461.00006103515625 170.99996948242188) rotate(0 29.666656494140625 30)"><path d="M14.83 0 C27.75 -1.57, 36.57 -0.12, 44.5 0 C54.52 -1.75, 61.09 1.77, 59.33 14.83 C61.67 22.95, 62.47 26.43, 59.33 45.17 C59.8 51.92, 51.08 61.03, 44.5 60 C34.97 62.55, 28.16 61.72, 14.83 60 C4.67 58.57, 2.13 56.45, 0 45.17 C2.91 34.24, -2.86 27.66, 0 14.83 C-3.14 6.96, 7.29 0.94, 14.83 0" stroke="none" stroke-width="0" fill="#a5d8ff"></path><path d="M14.83 0 C20.27 -2.09, 30.27 0.55, 44.5 0 M14.83 0 C23.85 -0.29, 31.5 -0.89, 44.5 0 M44.5 0 C56.06 1.96, 58.56 4.21, 59.33 14.83 M44.5 0 C56.42 0.45, 59.27 3.31, 59.33 14.83 M59.33 14.83 C60.5 26.61, 58.39 36.83, 59.33 45.17 M59.33 14.83 C58.8 21.14, 59.06 27.34, 59.33 45.17 M59.33 45.17 C59.91 54.32, 54.68 59.84, 44.5 60 M59.33 45.17 C59.71 54.66, 52.86 58.44, 44.5 60 M44.5 60 C36.27 60.35, 30.1 58.92, 14.83 60 M44.5 60 C35.03 60.25, 27.69 60.48, 14.83 60 M14.83 60 C5.9 59.24, 0.43 53.5, 0 45.17 M14.83 60 C3.31 60.73, -0.49 53.43, 0 45.17 M0 45.17 C-1.77 35.87, 0.36 27.71, 0 14.83 M0 45.17 C-0.85 36.39, 0.31 26.26, 0 14.83 M0 14.83 C-0.6 5.68, 3.26 -0.37, 14.83 0 M0 14.83 C-2.02 4.5, 3.02 -1.72, 14.83 0" stroke="#1971c2" stroke-width="2" fill="none"></path></g><g transform="translate(481.2917175292969 191.39996948242185) rotate(0 9.375 9.599999999999994)"><text x="9.375" y="15.45" font-family="Cascadia, Segoe UI Emoji" font-size="16px" fill="#e03131" text-anchor="middle" style="white-space: pre;" direction="ltr" dominant-baseline="alphabetic">db</text></g><g stroke-linecap="round"><g transform="translate(300.8682639629725 60.666958020555796) rotate(0 84.47639594160052 55.03347512810413)"><path d="M-0.14 -0.28 C12.69 8.31, 47.66 33.01, 75.99 51.25 C104.32 69.49, 154.44 99.46, 169.81 109.17 M-1.67 -1.47 C11.19 6.8, 47.11 30.87, 75.64 49.45 C104.17 68.04, 154.09 99.88, 169.5 110.01" stroke="#343a40" stroke-width="2" fill="none"></path></g><g transform="translate(300.8682639629725 60.666958020555796) rotate(0 84.47639594160052 55.03347512810413)"><path d="M145.14 104.42 C149.95 107.57, 156.76 108.32, 169.5 110.01 M145.14 104.42 C150.65 105.6, 156.31 106.27, 169.5 110.01" stroke="#343a40" stroke-width="2" fill="none"></path></g><g transform="translate(300.8682639629725 60.666958020555796) rotate(0 84.47639594160052 55.03347512810413)"><path d="M154.43 90.07 C157.19 96.33, 161.97 100.2, 169.5 110.01 M154.43 90.07 C157.77 94.43, 161.34 98.33, 169.5 110.01" stroke="#343a40" stroke-width="2" fill="none"></path></g></g><mask></mask><g stroke-linecap="round"><g transform="translate(112.65377184504331 194.9486466542907) rotate(0 173.90580483367282 0.2751631874162115)"><path d="M0.15 0.69 C58.3 0.55, 290.49 0.47, 348.31 0.36 M-1.23 0 C56.86 0.56, 289.16 1.62, 347.62 1.8" stroke="#1e1e1e" stroke-width="2" fill="none"></path></g><g transform="translate(112.65377184504331 194.9486466542907) rotate(0 173.90580483367282 0.2751631874162115)"><path d="M324.09 10.26 C330.99 8.96, 335.38 4.73, 347.62 1.8 M324.09 10.26 C330.81 8.55, 336.34 5.09, 347.62 1.8" stroke="#1e1e1e" stroke-width="2" fill="none"></path></g><g transform="translate(112.65377184504331 194.9486466542907) rotate(0 173.90580483367282 0.2751631874162115)"><path d="M324.16 -6.84 C331.21 -3.9, 335.58 -3.88, 347.62 1.8 M324.16 -6.84 C330.94 -4.14, 336.46 -3.19, 347.62 1.8" stroke="#1e1e1e" stroke-width="2" fill="none"></path></g></g><mask></mask><g transform="translate(365.2574323191062 89.83469675239095) rotate(0 18.986549643475314 23.389236219114693)" stroke="none"><path fill="#ffc9c9" d="M 1.39,-0.95 Q 1.39,-0.95 3.41,2.07 5.42,5.11 7.97,8.25 10.51,11.40 12.42,14.06 14.32,16.73 16.68,19.73 19.04,22.73 20.70,25.16 22.37,27.59 23.97,29.51 25.57,31.43 26.92,33.25 28.27,35.07 29.49,36.79 30.70,38.51 31.71,39.40 32.71,40.30 34.32,42.01 35.93,43.72 37.04,44.16 38.15,44.60 38.50,44.68 38.84,44.77 39.14,44.96 39.43,45.15 39.65,45.43 39.87,45.71 40.00,46.04 40.12,46.37 40.12,46.72 40.13,47.08 40.03,47.42 39.92,47.75 39.71,48.04 39.51,48.33 39.22,48.53 38.93,48.74 38.59,48.84 38.25,48.94 37.90,48.93 37.55,48.92 37.22,48.79 36.88,48.67 36.61,48.45 36.34,48.23 36.15,47.93 35.96,47.63 35.87,47.28 35.79,46.94 35.82,46.59 35.85,46.24 35.99,45.91 36.13,45.59 36.37,45.33 36.61,45.06 36.92,44.89 37.22,44.72 37.57,44.65 37.92,44.59 38.27,44.64 38.62,44.69 38.93,44.85 39.25,45.00 39.50,45.26 39.75,45.51 39.90,45.82 40.06,46.14 40.11,46.49 40.15,46.84 40.08,47.19 40.02,47.54 39.84,47.84 39.66,48.15 39.40,48.38 39.14,48.62 38.81,48.76 38.49,48.90 38.13,48.92 37.78,48.95 37.78,48.95 37.78,48.95 35.72,48.04 33.66,47.13 32.70,45.64 31.73,44.14 31.07,43.30 30.41,42.47 29.44,41.27 28.48,40.08 27.29,38.39 26.11,36.69 24.79,34.94 23.47,33.19 21.78,31.19 20.08,29.18 18.44,26.84 16.81,24.50 14.39,21.47 11.96,18.45 10.06,15.89 8.17,13.32 5.48,10.11 2.80,6.91 0.70,3.93 -1.39,0.95 -1.49,0.77 -1.58,0.59 -1.63,0.39 -1.68,0.19 -1.68,-0.00 -1.68,-0.21 -1.63,-0.40 -1.58,-0.60 -1.48,-0.78 -1.39,-0.96 -1.25,-1.12 -1.11,-1.27 -0.95,-1.38 -0.78,-1.50 -0.59,-1.57 -0.39,-1.64 -0.19,-1.67 0.00,-1.69 0.20,-1.66 0.41,-1.64 0.60,-1.57 0.79,-1.49 0.96,-1.38 1.12,-1.26 1.26,-1.11 1.39,-0.95 1.39,-0.95 L 1.39,-0.95 Z"></path></g><g transform="translate(405.4318874900398 95.88838764485428) rotate(0 -23.114060435535123 19.261712830891526)" stroke="none"><path fill="#ffc9c9" d="M 1.05,1.63 Q 1.05,1.63 -1.20,2.98 -3.47,4.34 -8.06,7.41 -12.65,10.48 -16.82,13.50 -20.98,16.52 -23.98,19.17 -26.98,21.83 -29.71,24.24 -32.44,26.65 -34.05,28.27 -35.66,29.89 -36.59,30.99 -37.53,32.08 -38.12,33.11 -38.71,34.14 -39.62,35.01 -40.53,35.88 -41.27,36.76 -42.01,37.64 -42.94,38.35 -43.86,39.07 -44.01,39.43 -44.16,39.79 -44.42,40.09 -44.68,40.38 -45.01,40.58 -45.35,40.78 -45.74,40.86 -46.12,40.94 -46.51,40.89 -46.90,40.85 -47.25,40.68 -47.61,40.51 -47.89,40.24 -48.17,39.96 -48.35,39.61 -48.53,39.27 -48.59,38.88 -48.65,38.49 -48.58,38.10 -48.51,37.72 -48.32,37.37 -48.14,37.03 -47.85,36.76 -47.56,36.50 -47.20,36.34 -46.84,36.18 -46.45,36.14 -46.06,36.10 -45.68,36.19 -45.30,36.28 -44.97,36.48 -44.63,36.69 -44.38,36.99 -44.13,37.29 -43.99,37.66 -43.85,38.02 -43.83,38.42 -43.82,38.81 -43.93,39.18 -44.04,39.56 -44.26,39.88 -44.48,40.21 -44.80,40.44 -45.11,40.67 -45.49,40.79 -45.86,40.91 -46.25,40.91 -46.64,40.91 -47.01,40.78 -47.38,40.65 -47.69,40.41 -48.00,40.16 -48.22,39.84 -48.43,39.51 -48.53,39.13 -48.64,38.75 -48.61,38.36 -48.58,37.97 -48.58,37.97 -48.58,37.97 -46.33,35.89 -44.07,33.80 -42.85,32.92 -41.63,32.04 -40.73,30.93 -39.83,29.82 -38.75,28.87 -37.67,27.92 -36.02,26.21 -34.37,24.50 -31.67,22.06 -28.98,19.62 -25.91,16.81 -22.84,14.01 -18.68,10.88 -14.52,7.76 -9.95,4.55 -5.38,1.35 -3.22,-0.13 -1.05,-1.63 -0.83,-1.73 -0.62,-1.83 -0.39,-1.88 -0.17,-1.93 0.06,-1.92 0.29,-1.92 0.52,-1.85 0.74,-1.79 0.95,-1.67 1.15,-1.56 1.32,-1.40 1.49,-1.24 1.62,-1.04 1.74,-0.84 1.82,-0.62 1.90,-0.40 1.92,-0.16 1.94,0.06 1.90,0.29 1.87,0.52 1.78,0.74 1.68,0.95 1.55,1.14 1.41,1.33 1.23,1.48 1.05,1.63 1.05,1.63 L 1.05,1.63 Z"></path></g><g transform="translate(252.43883759257244 174.03591691041197) rotate(0 30.268404077663376 19.261725427054813)" stroke="none"><path fill="#ffc9c9" d="M 1.02,-1.53 Q 1.02,-1.53 7.15,2.63 13.28,6.80 18.57,10.50 23.87,14.20 27.69,16.89 31.51,19.58 35.62,22.14 39.73,24.69 42.93,26.75 46.12,28.81 48.59,30.49 51.06,32.16 52.76,33.34 54.45,34.52 55.52,35.07 56.59,35.61 58.62,36.05 60.64,36.49 60.96,36.56 61.28,36.63 61.57,36.80 61.85,36.97 62.06,37.22 62.27,37.47 62.40,37.78 62.52,38.08 62.54,38.41 62.55,38.74 62.47,39.06 62.38,39.37 62.19,39.64 62.01,39.92 61.75,40.12 61.48,40.32 61.17,40.42 60.86,40.53 60.53,40.53 60.20,40.53 59.89,40.42 59.58,40.32 59.32,40.12 59.06,39.92 58.87,39.64 58.69,39.37 58.60,39.06 58.51,38.74 58.53,38.41 58.55,38.08 58.67,37.78 58.79,37.47 59.00,37.22 59.22,36.97 59.50,36.80 59.78,36.63 60.10,36.56 60.42,36.49 60.75,36.52 61.08,36.56 61.37,36.70 61.67,36.84 61.91,37.06 62.15,37.29 62.31,37.58 62.46,37.87 62.51,38.19 62.57,38.52 62.51,38.84 62.46,39.17 62.30,39.46 62.15,39.75 61.91,39.98 61.67,40.20 61.37,40.34 61.08,40.48 60.75,40.51 60.42,40.55 60.42,40.55 60.42,40.55 58.72,40.06 57.01,39.57 55.92,38.97 54.82,38.38 53.83,37.60 52.84,36.83 51.17,35.65 49.51,34.48 47.05,32.84 44.59,31.21 41.40,29.20 38.20,27.19 33.99,24.63 29.78,22.08 25.92,19.46 22.06,16.83 16.72,13.24 11.39,9.64 5.18,5.59 -1.02,1.53 -1.19,1.39 -1.36,1.24 -1.49,1.06 -1.62,0.88 -1.70,0.67 -1.78,0.47 -1.81,0.25 -1.84,0.02 -1.82,-0.19 -1.80,-0.41 -1.72,-0.62 -1.65,-0.83 -1.52,-1.01 -1.40,-1.20 -1.23,-1.35 -1.07,-1.50 -0.87,-1.61 -0.68,-1.71 -0.46,-1.77 -0.25,-1.83 -0.02,-1.83 0.19,-1.83 0.41,-1.78 0.62,-1.73 0.82,-1.63 1.02,-1.53 1.02,-1.53 L 1.02,-1.53 Z"></path></g><g transform="translate(316.82800594870616 172.935264160747) rotate(0 -28.067073386007053 22.838884651955652)" stroke="none"><path fill="#ffc9c9" d="M 1.01,1.23 Q 1.01,1.23 -1.69,3.41 -4.41,5.60 -7.33,7.80 -10.25,10.00 -12.56,12.00 -14.87,14.00 -18.59,16.94 -22.30,19.87 -24.80,22.04 -27.30,24.20 -29.79,26.39 -32.29,28.58 -34.95,30.79 -37.61,33.00 -39.68,34.72 -41.76,36.44 -43.48,37.57 -45.21,38.70 -46.80,40.03 -48.39,41.36 -49.37,42.24 -50.36,43.11 -51.22,43.84 -52.08,44.57 -53.55,45.92 -55.02,47.28 -55.30,47.41 -55.59,47.55 -55.90,47.58 -56.22,47.62 -56.52,47.56 -56.83,47.49 -57.10,47.33 -57.38,47.17 -57.58,46.93 -57.79,46.70 -57.91,46.40 -58.03,46.11 -58.05,45.80 -58.07,45.48 -57.99,45.18 -57.91,44.87 -57.73,44.61 -57.56,44.35 -57.31,44.15 -57.06,43.96 -56.76,43.86 -56.46,43.75 -56.15,43.75 -55.83,43.74 -55.53,43.84 -55.23,43.94 -54.98,44.13 -54.73,44.32 -54.55,44.58 -54.37,44.84 -54.28,45.14 -54.19,45.44 -54.21,45.76 -54.22,46.07 -54.33,46.37 -54.45,46.66 -54.65,46.90 -54.85,47.15 -55.12,47.31 -55.39,47.48 -55.70,47.55 -56.00,47.62 -56.32,47.59 -56.63,47.56 -56.92,47.43 -57.21,47.30 -57.44,47.08 -57.67,46.87 -57.82,46.59 -57.97,46.31 -58.03,46.00 -58.08,45.69 -58.03,45.38 -57.98,45.07 -57.84,44.79 -57.69,44.51 -57.47,44.29 -57.24,44.07 -57.24,44.07 -57.24,44.07 -55.71,42.83 -54.18,41.59 -53.23,41.05 -52.27,40.51 -51.21,39.88 -50.16,39.26 -48.43,37.79 -46.70,36.33 -45.08,35.36 -43.46,34.39 -41.39,32.66 -39.33,30.93 -36.70,28.74 -34.08,26.55 -31.59,24.34 -29.10,22.14 -26.57,19.91 -24.04,17.69 -20.39,14.78 -16.75,11.86 -14.39,9.77 -12.03,7.68 -9.19,5.46 -6.34,3.25 -3.68,1.01 -1.01,-1.23 -0.85,-1.33 -0.69,-1.44 -0.50,-1.50 -0.32,-1.56 -0.13,-1.58 0.05,-1.59 0.24,-1.56 0.43,-1.53 0.61,-1.46 0.79,-1.38 0.94,-1.27 1.10,-1.15 1.22,-1.00 1.34,-0.86 1.43,-0.68 1.51,-0.51 1.55,-0.32 1.59,-0.13 1.58,0.05 1.57,0.24 1.52,0.43 1.47,0.62 1.37,0.78 1.28,0.95 1.14,1.09 1.01,1.23 1.01,1.23 L 1.01,1.23 Z"></path></g></svg>