<svg version="1.1" xmlns="http://www.w3.org/2000/svg" viewBox="0 0 804.9910278892089 301.84547166317384" width="804.9910278892089" height="301.84547166317384" filter="invert(93%) hue-rotate(180deg)">
  <!-- svg-source:excalidraw -->
  
  <defs>
    <style class="style-fonts">
      @font-face {
        font-family: "Virgil";
        src: url("https://excalidraw.com/Virgil.woff2");
      }
      @font-face {
        font-family: "Cascadia";
        src: url("https://excalidraw.com/Cascadia.woff2");
      }
      @font-face {
        font-family: "Assistant";
        src: url("https://excalidraw.com/Assistant-Regular.woff2");
      }
    </style>
    
  </defs>
  <g stroke-linecap="round" transform="translate(10 127.16058282082082) rotate(0 156.49236853957723 81.1231521252733)"><path d="M32 0 C123.17 -0.12, 211.29 1.18, 280.98 0 M32 0 C102.06 -1.15, 170.21 -0.68, 280.98 0 M280.98 0 C301.71 -1.25, 311.81 9.12, 312.98 32 M280.98 0 C302.59 -1.59, 312.18 9.96, 312.98 32 M312.98 32 C313.26 59.73, 314.58 88.36, 312.98 130.25 M312.98 32 C314.35 60.38, 313.75 89.84, 312.98 130.25 M312.98 130.25 C311.23 149.95, 301.19 161.02, 280.98 162.25 M312.98 130.25 C312.97 152.95, 301.14 162.34, 280.98 162.25 M280.98 162.25 C186.16 164.49, 91.48 162.86, 32 162.25 M280.98 162.25 C191.88 161.33, 101.22 160.51, 32 162.25 M32 162.25 C9.15 162.22, -0.54 150.9, 0 130.25 M32 162.25 C11.34 160.44, -0.24 151.85, 0 130.25 M0 130.25 C0.19 93.34, 0.73 54.04, 0 32 M0 130.25 C1.49 107.08, 1.25 84.85, 0 32 M0 32 C-1.27 9.89, 11.34 0.07, 32 0 M0 32 C0.6 11.43, 12.47 0.72, 32 0" stroke="#1e1e1e" stroke-width="2" fill="none"></path></g><g stroke-linecap="round" transform="translate(67.39167702859231 102.69525435571077) rotate(0 99.66668701171875 22.979852098621862)"><path d="M11.49 0 C49.77 2.26, 96.62 -2.58, 187.84 0 C196.25 -3.43, 199.18 3.85, 199.33 11.49 C199.79 20.95, 201.13 26.31, 199.33 34.47 C196.22 41.43, 192.79 43.87, 187.84 45.96 C148.34 46.27, 111.99 48.32, 11.49 45.96 C6.35 49.02, 0.59 40.2, 0 34.47 C-2.75 29.91, -1.77 20.37, 0 11.49 C1.78 3.41, 1.6 3.59, 11.49 0" stroke="none" stroke-width="0" fill="#ffc9c9"></path><path d="M11.49 0 C50.21 -1.91, 91.88 -0.19, 187.84 0 M11.49 0 C53.78 -0.54, 97.53 1.02, 187.84 0 M187.84 0 C196.71 0.94, 200.13 3.92, 199.33 11.49 M187.84 0 C197.3 -0.45, 198.1 3.6, 199.33 11.49 M199.33 11.49 C197.64 18.78, 197.42 26.89, 199.33 34.47 M199.33 11.49 C200.12 16, 198.36 20.06, 199.33 34.47 M199.33 34.47 C200.75 42.32, 196.46 46.85, 187.84 45.96 M199.33 34.47 C200.58 40.97, 196.3 44.6, 187.84 45.96 M187.84 45.96 C144.15 46.47, 101.41 45.53, 11.49 45.96 M187.84 45.96 C143.11 46.33, 98.56 45.34, 11.49 45.96 M11.49 45.96 C4.32 46.32, 1.76 43.73, 0 34.47 M11.49 45.96 C1.83 45.05, 0.64 42.47, 0 34.47 M0 34.47 C-1.62 28.24, 0.92 24.56, 0 11.49 M0 34.47 C0.07 28.6, 0.37 24.8, 0 11.49 M0 11.49 C-0.67 3.49, 3.94 -1.84, 11.49 0 M0 11.49 C-2.22 2.5, 5.71 0.5, 11.49 0" stroke="#1e1e1e" stroke-width="2" fill="none"></path></g><g transform="translate(104.2284049191577 104.09456115493026) rotate(0 60.9375 19.200000000000003)"><text x="60.9375" y="15.45" font-family="Cascadia, Segoe UI Emoji" font-size="16px" fill="#1e1e1e" text-anchor="middle" style="white-space: pre;" direction="ltr" dominant-baseline="alphabetic">eth0</text><text x="60.9375" y="34.65" font-family="Cascadia, Segoe UI Emoji" font-size="16px" fill="#1e1e1e" text-anchor="middle" style="white-space: pre;" direction="ltr" dominant-baseline="alphabetic">192.168.23.50</text></g><g stroke-linecap="round" transform="translate(129.438978200699 186.93262508757786) rotate(0 40.99993213701896 31.919420990650636)"><path d="M15.96 0 C31.77 -0.53, 44.03 -3.26, 66.04 0 C73.45 -1.68, 79.54 7.12, 82 15.96 C81.82 26.99, 82.36 38.24, 82 47.88 C84.93 56.86, 78.1 65.29, 66.04 63.84 C43.73 62.05, 28.41 60.74, 15.96 63.84 C7.57 61.4, -0.71 61.79, 0 47.88 C0.91 36.81, -0.47 24.01, 0 15.96 C-1.22 8.07, 7.35 -1.18, 15.96 0" stroke="none" stroke-width="0" fill="#a5d8ff"></path><path d="M15.96 0 C35.22 -0.48, 56.18 1.34, 66.04 0 M15.96 0 C28.65 0.48, 40.01 0.63, 66.04 0 M66.04 0 C78.54 -0.49, 80.26 6.9, 82 15.96 M66.04 0 C77.24 -0.62, 82.18 3.59, 82 15.96 M82 15.96 C83.06 20.71, 82.42 30.22, 82 47.88 M82 15.96 C81.73 27.38, 81.96 39.35, 82 47.88 M82 47.88 C81.21 60.17, 78.06 64.98, 66.04 63.84 M82 47.88 C83.75 56.79, 75.79 62.2, 66.04 63.84 M66.04 63.84 C53.17 63.73, 34.84 62.27, 15.96 63.84 M66.04 63.84 C49.82 63.63, 35.3 62.91, 15.96 63.84 M15.96 63.84 C3.65 64.52, -0.37 58.78, 0 47.88 M15.96 63.84 C5.07 64.06, -1.67 58.07, 0 47.88 M0 47.88 C-1.03 39.53, 1.17 28.67, 0 15.96 M0 47.88 C-0.73 39.68, 0.52 28.83, 0 15.96 M0 15.96 C-1.99 6.04, 5.61 0.28, 15.96 0 M0 15.96 C-1.03 5.34, 6 -2.09, 15.96 0" stroke="#1971c2" stroke-width="2" fill="none"></path></g><g transform="translate(156.37641033771797 209.2520460782285) rotate(0 14.0625 9.599999999999994)"><text x="14.0625" y="15.45" font-family="Cascadia, Segoe UI Emoji" font-size="16px" fill="#e03131" text-anchor="middle" style="white-space: pre;" direction="ltr" dominant-baseline="alphabetic">app</text></g><g stroke-linecap="round" transform="translate(482.00629081005445 129.59916741262725) rotate(0 156.49236853957723 81.1231521252733)"><path d="M32 0 C99.04 0.37, 167.84 -1.24, 280.98 0 M32 0 C87.47 1.23, 142.37 2.36, 280.98 0 M280.98 0 C302.28 1.18, 312.93 12.52, 312.98 32 M280.98 0 C303.53 -1.77, 313.86 11.35, 312.98 32 M312.98 32 C313.76 55.87, 313.82 77.95, 312.98 130.25 M312.98 32 C314.27 57.73, 313.13 82.1, 312.98 130.25 M312.98 130.25 C312.55 149.95, 301.87 161.71, 280.98 162.25 M312.98 130.25 C314.42 150.2, 302.01 164.34, 280.98 162.25 M280.98 162.25 C198.95 161.09, 112.94 161.43, 32 162.25 M280.98 162.25 C204.92 160.54, 128.86 160.27, 32 162.25 M32 162.25 C8.95 162.69, 1.95 151.45, 0 130.25 M32 162.25 C8.97 162.69, 1.02 149.39, 0 130.25 M0 130.25 C1.76 106.69, 0.41 81.13, 0 32 M0 130.25 C0.29 105.96, 0.54 80.95, 0 32 M0 32 C-0.49 8.75, 10.3 0.36, 32 0 M0 32 C-1.65 10.71, 11.99 0.83, 32 0" stroke="#1e1e1e" stroke-width="2" fill="none"></path></g><g stroke-linecap="round" transform="translate(542.1866699638165 103.58187133357535) rotate(0 99.66668701171875 22.979852098621862)"><path d="M11.49 0 C73.78 -6.31, 135.99 -2.09, 187.84 0 C199.02 -0.59, 199.97 4.25, 199.33 11.49 C202.3 20.19, 199.84 25.34, 199.33 34.47 C201.72 38.58, 192.3 43.7, 187.84 45.96 C150.93 42.73, 111.74 44.7, 11.49 45.96 C7.23 42.55, 2.25 43.56, 0 34.47 C-1.93 22.45, -1.48 20.08, 0 11.49 C-0.68 1.75, 4.99 -2.73, 11.49 0" stroke="none" stroke-width="0" fill="#ffc9c9"></path><path d="M11.49 0 C73.58 -1.75, 134.92 -1.93, 187.84 0 M11.49 0 C49.63 1.72, 89.75 1.36, 187.84 0 M187.84 0 C195.45 1.85, 200.39 2.29, 199.33 11.49 M187.84 0 C196.37 0.68, 197.71 4, 199.33 11.49 M199.33 11.49 C200.18 21.37, 198.54 30.71, 199.33 34.47 M199.33 11.49 C199.08 16.04, 199.28 20.23, 199.33 34.47 M199.33 34.47 C198.89 41.59, 196.75 44.76, 187.84 45.96 M199.33 34.47 C199.02 44.22, 196.32 46.8, 187.84 45.96 M187.84 45.96 C131.81 43.19, 78.22 43.04, 11.49 45.96 M187.84 45.96 C151.76 46.39, 114.65 46.67, 11.49 45.96 M11.49 45.96 C5.78 45.83, -1.48 42.51, 0 34.47 M11.49 45.96 C4.85 43.77, -1.04 40.21, 0 34.47 M0 34.47 C-0.52 30.71, -0.99 25.31, 0 11.49 M0 34.47 C0.59 29.93, -0.35 22.48, 0 11.49 M0 11.49 C-0.36 4.19, 2.39 0.04, 11.49 0 M0 11.49 C1.32 4.66, 1.54 -0.4, 11.49 0" stroke="#1e1e1e" stroke-width="2" fill="none"></path></g><g transform="translate(586.8215018574417 103.7814634879212) rotate(0 60.9375 19.200000000000003)"><text x="60.9375" y="15.45" font-family="Cascadia, Segoe UI Emoji" font-size="16px" fill="#1e1e1e" text-anchor="middle" style="white-space: pre;" direction="ltr" dominant-baseline="alphabetic">eth0</text><text x="60.9375" y="34.65" font-family="Cascadia, Segoe UI Emoji" font-size="16px" fill="#1e1e1e" text-anchor="middle" style="white-space: pre;" direction="ltr" dominant-baseline="alphabetic">192.168.23.60</text></g><g stroke-linecap="round" transform="translate(601.4452690107537 189.37120967938426) rotate(0 40.99993213701896 31.91942099065065)"><path d="M15.96 0 C29.94 -0.83, 37.52 0.19, 66.04 0 C77.69 0.71, 82.18 8.2, 82 15.96 C84.46 23.01, 78.87 34.91, 82 47.88 C78.9 60.07, 74.07 64.67, 66.04 63.84 C55.72 60.69, 40.85 65.52, 15.96 63.84 C8.55 62.92, -2.08 56.48, 0 47.88 C-0.43 38.94, 1.41 31.43, 0 15.96 C-1.75 2.15, 8.68 1.13, 15.96 0" stroke="none" stroke-width="0" fill="#a5d8ff"></path><path d="M15.96 0 C29.02 -0.21, 44.33 -1.91, 66.04 0 M15.96 0 C35.68 0.63, 55.97 -1.06, 66.04 0 M66.04 0 C77.44 0.59, 80.59 5.47, 82 15.96 M66.04 0 C78.82 0.81, 83.52 6.2, 82 15.96 M82 15.96 C80.02 28.33, 83 36.96, 82 47.88 M82 15.96 C81.71 24.53, 82.56 33.04, 82 47.88 M82 47.88 C81.73 60.34, 77.39 64.57, 66.04 63.84 M82 47.88 C82.26 60.64, 74.74 62.5, 66.04 63.84 M66.04 63.84 C52.32 63.55, 42.96 63.66, 15.96 63.84 M66.04 63.84 C52.28 63.89, 35.83 64.14, 15.96 63.84 M15.96 63.84 C6.2 61.94, -0.9 56.85, 0 47.88 M15.96 63.84 C3.16 64.92, 1.71 58.05, 0 47.88 M0 47.88 C-1.06 37.64, 1.84 27, 0 15.96 M0 47.88 C-0.1 35.38, -0.64 22.53, 0 15.96 M0 15.96 C1.15 6.04, 3.33 -0.35, 15.96 0 M0 15.96 C1.37 4.22, 7.52 -0.73, 15.96 0" stroke="#1971c2" stroke-width="2" fill="none"></path></g><g transform="translate(628.3827011477727 211.69063067003492) rotate(0 14.0625 9.599999999999994)"><text x="14.0625" y="15.45" font-family="Cascadia, Segoe UI Emoji" font-size="16px" fill="#e03131" text-anchor="middle" style="white-space: pre;" direction="ltr" dominant-baseline="alphabetic">app</text></g><g transform="translate(313.65629358283866 10) rotate(0 70.3125 9.600000000000001)"><text x="70.3125" y="15.45" font-family="Cascadia, Segoe UI Emoji" font-size="16px" fill="#e03131" text-anchor="middle" style="white-space: pre;" direction="ltr" dominant-baseline="alphabetic">192.168.23.0/24</text></g><g stroke-linecap="round"><g transform="translate(176.21745063892843 98.60389413749704) rotate(0 92.4562417421406 -35.221423326216836)"><path d="M-0.94 0.78 C29.91 -11.1, 154.01 -58.44, 185 -70.32 M0.77 0.14 C31.48 -11.6, 153.51 -57.15, 184.1 -68.72" stroke="#2f9e44" stroke-width="2" fill="none"></path></g></g><mask></mask><g stroke-linecap="round"><g transform="translate(405.1566487256438 26.510043168239434) rotate(0 76.77172592463984 36.0469254846288)"><path d="M-0.56 0.81 C25.36 12.87, 128.73 60.53, 154.37 72.6 M1.34 0.2 C27.29 11.87, 128.68 58.86, 153.85 70.75" stroke="#2f9e44" stroke-width="2" fill="none"></path></g></g><mask></mask><g stroke-linecap="round"><g transform="translate(215.84155424270295 217.75138073240026) rotate(0 188.4614757045528 0.2999217964485297)"><path d="M0.53 -0.23 C63.45 -0.04, 314.56 1.04, 377.21 1.29" stroke="#da77f2" stroke-width="2.5" fill="none" stroke-dasharray="8 10"></path></g></g><mask></mask><g transform="translate(347.4076766012123 169.92177276257067) rotate(0 51.5625 19.200000000000003)"><text x="51.5625" y="15.45" font-family="Cascadia, Segoe UI Emoji" font-size="16px" fill="#da77f2" text-anchor="middle" style="white-space: pre;" direction="ltr" dominant-baseline="alphabetic">Overlay</text><text x="51.5625" y="34.65" font-family="Cascadia, Segoe UI Emoji" font-size="16px" fill="#da77f2" text-anchor="middle" style="white-space: pre;" direction="ltr" dominant-baseline="alphabetic">10.0.0.0/24</text></g><g transform="translate(197.37257730676447 259.0061427452893) rotate(0 37.5 9.599999999999994)"><text x="37.5" y="15.45" font-family="Cascadia, Segoe UI Emoji" font-size="16px" fill="#da77f2" text-anchor="middle" style="white-space: pre;" direction="ltr" dominant-baseline="alphabetic">10.0.0.2</text></g><g transform="translate(554.284924519184 260.20585739016303) rotate(0 37.5 9.599999999999994)"><text x="37.5" y="15.45" font-family="Cascadia, Segoe UI Emoji" font-size="16px" fill="#da77f2" text-anchor="middle" style="white-space: pre;" direction="ltr" dominant-baseline="alphabetic">10.0.0.3</text></g></svg>